<svg xmlns="http://www.w3.org/2000/svg" width="16" height="16" fill="none"><mask id="a" width="16" height="16" x="0" y="0" maskUnits="userSpaceOnUse" style="mask-type:alpha"><path fill="#D9D9D9" d="M0 0h16v16H0z"/></mask><g mask="url(#a)"><path fill="#A3FF87" d="M11.333 14.667v-2h-2v-1.334h2v-2h1.334v2h2v1.334h-2v2zm-8-1.334q-.55 0-.941-.391A1.28 1.28 0 0 1 2 12V4q0-.55.392-.942.391-.39.941-.391H4V1.333h1.333v1.334h4V1.333h1.334v1.334h.666q.55 0 .942.391.392.392.392.942v4.067a4.5 4.5 0 0 0-1.334 0v-1.4h-8V12H8q0 .333.05.667.05.333.183.666zm0-8h8V4h-8z"/></g></svg>