<svg xmlns="http://www.w3.org/2000/svg" width="16" height="16" fill="none"><mask id="a" width="16" height="16" x="0" y="0" maskUnits="userSpaceOnUse" style="mask-type:alpha"><path fill="#D9D9D9" d="M0 0h16v16H0z"/></mask><g mask="url(#a)"><path fill="#A3FF87" d="M6 9.333h1.333V6H6zm-2.667-1a2.97 2.97 0 0 1-1.216-1.108 2.93 2.93 0 0 1-.45-1.575q0-1.25.858-2.117.858-.866 2.108-.866.2 0 .409.033t.408.083a3 3 0 0 1 1.083-1.066A2.9 2.9 0 0 1 8 1.333a2.9 2.9 0 0 1 1.467.384q.666.382 1.083 1.066.2-.049.4-.083.2-.033.417-.033 1.25 0 2.108.866.858.867.858 2.117a2.93 2.93 0 0 1-.45 1.575q-.45.725-1.216 1.108V12H3.333zm5.334 1H10V6H8.667zm-4 1.334h6.666v-3.15l.734-.367q.433-.216.683-.608t.25-.875q0-.7-.475-1.184A1.56 1.56 0 0 0 11.367 4a1.5 1.5 0 0 0-.334.033q-.15.034-.316.084l-.784.216-.516-.866A1.63 1.63 0 0 0 8 2.667a1.64 1.64 0 0 0-1.417.8l-.516.866-.8-.216a6 6 0 0 1-.325-.075 1.535 1.535 0 0 0-1.475.442A1.64 1.64 0 0 0 3 5.666q0 .483.25.875.25.391.683.608l.734.367zM3.333 12h1.334v1.333h6.666V12h1.334v2.667H3.333z"/></g></svg>