<svg xmlns="http://www.w3.org/2000/svg" width="12" height="12" fill="none"><path fill="#A3FF87" d="M8.4 7.8q-.75 0-1.275-.525A1.74 1.74 0 0 1 6.6 6q0-.75.525-1.275T8.4 4.2t1.275.525T10.2 6t-.525 1.275T8.4 7.8m0-1.2a.58.58 0 0 0 .428-.172A.58.58 0 0 0 9 6a.58.58 0 0 0-.172-.428A.58.58 0 0 0 8.4 5.4a.58.58 0 0 0-.428.172A.58.58 0 0 0 7.8 6q0 .255.173.428A.58.58 0 0 0 8.4 6.6M4.8 12v-1.74q0-.315.15-.592.15-.278.42-.443a5.7 5.7 0 0 1 1.013-.473 6.3 6.3 0 0 1 1.087-.277L8.4 9.6l.93-1.125q.555.09 1.08.277t1.005.473q.27.165.428.443.156.276.157.592V12zm1.185-1.2H7.83l-.81-.99q-.27.075-.525.195t-.51.255zm2.985 0h1.83v-.54a4 4 0 0 0-1.02-.45zm-7.77 0q-.495 0-.847-.353A1.16 1.16 0 0 1 0 9.6V1.2Q0 .705.353.353.704 0 1.2 0h8.4q.495 0 .848.353.351.352.352.847v3q-.24-.3-.525-.57T9.6 3.27V1.2H1.2v8.4h2.49a2.6 2.6 0 0 0-.09.66v.54zm1.2-7.2h4.2q.39-.3.855-.45T8.4 3v-.6h-6zm0 2.4h3q0-.315.067-.615.069-.3.188-.585H2.4zm0 2.4h2.07q.165-.135.353-.24.186-.105.382-.195V7.2H2.4zM1.2 9.6V1.2v2.055V3z"/></svg>