<svg xmlns="http://www.w3.org/2000/svg" width="101" height="100" fill="none"><mask id="a" width="101" height="100" x="0" y="0" maskUnits="userSpaceOnUse" style="mask-type:alpha"><path fill="#D9D9D9" d="M.5 0h100v100H.5z"/></mask><g mask="url(#a)"><path fill="#33B148" d="M50.5 95.833q-9.48 0-17.812-3.593-8.334-3.594-14.584-9.844T8.261 67.813 4.667 50 8.26 32.188t9.843-14.584T32.688 7.76 50.5 4.167 68.313 7.76q8.333 3.595 14.583 9.844 6.25 6.25 9.844 14.584T96.333 50 92.74 67.813t-9.844 14.583-14.583 9.844T50.5 95.833m0-8.333q15.624 0 26.563-10.937Q88 65.625 88 50T77.063 23.438 50.5 12.5 23.938 23.438 13 50t10.938 26.563T50.5 87.5m0-8.333q12.187 0 20.677-8.49T79.667 50t-8.49-20.677q-8.49-8.49-20.677-8.49-3.021 0-5.625 1.302a12.1 12.1 0 0 0-4.375 3.698 16 16 0 0 0-5.73.625 11.4 11.4 0 0 0-4.895 2.917 12.35 12.35 0 0 0-3.02 4.896A12.35 12.35 0 0 0 26.332 40a12.1 12.1 0 0 0-3.697 4.375Q21.333 46.979 21.333 50t1.303 5.625A12.1 12.1 0 0 0 26.333 60a12.35 12.35 0 0 0 .521 5.73 12.35 12.35 0 0 0 3.021 4.895 12.9 12.9 0 0 0 4.896 3.073q2.813.99 5.73.469a12.1 12.1 0 0 0 4.374 3.698q2.604 1.302 5.625 1.302m0-8.334q-2.291 0-3.542-1.927a40 40 0 0 0-2.708-3.698 70 70 0 0 0-4.583.782q-2.292.468-3.959-1.198-1.666-1.666-1.197-3.959.468-2.29.78-4.583a78 78 0 0 0-3.697-2.656Q29.667 52.292 29.667 50t1.927-3.542a40 40 0 0 0 3.698-2.708 70 70 0 0 0-.782-4.583q-.468-2.292 1.198-3.959 1.667-1.666 3.959-1.198 2.29.469 4.583.782a78 78 0 0 0 2.656-3.698q1.302-1.927 3.594-1.927zM63 66.667l-5.833-5.834L63 54.896l5.833 5.937zm2.292-19.896-8.75-8.854q1.77-1.77 4.375-1.823t4.375 1.823q1.77 1.77 1.823 4.427.052 2.655-1.823 4.427"/></g></svg>