<svg xmlns="http://www.w3.org/2000/svg" width="32" height="32" fill="none"><path fill="#33B148" d="M22.333 31.833q-3.958 0-6.729-2.77t-2.77-6.73 2.77-6.729 6.73-2.77q3.957 0 6.729 2.77 2.77 2.77 2.77 6.73 0 3.957-2.77 6.729-2.771 2.77-6.73 2.77m0-3.166q2.613 0 4.473-1.86t1.86-4.474q0-2.611-1.86-4.473Q24.946 16 22.333 16q-2.611 0-4.473 1.86Q16 19.72 16 22.333t1.86 4.473 4.473 1.86m-19 0a3.05 3.05 0 0 1-2.236-.93 3.05 3.05 0 0 1-.93-2.237V13.467q0-.318.06-.634.058-.316.177-.633l3.167-7.283h-.238q-.672 0-1.128-.456a1.53 1.53 0 0 1-.455-1.128V1.75q0-.674.455-1.128.456-.455 1.128-.455h11.084q.672 0 1.128.455T16 1.75v1.583q0 .673-.455 1.128-.456.456-1.128.456h-.238l2.613 6.016q-.753.396-1.425.832-.673.435-1.267.99l-3.325-7.838h-3.8l-3.642 8.55V25.5h6.73q.197.831.534 1.643.337.81.811 1.524zm19-17.417q-1.662 0-2.81-1.148t-1.148-2.81 1.148-2.81q1.148-1.149 2.81-1.149zq0-1.662 1.148-2.81t2.81-1.148 2.811 1.148 1.148 2.81z"/></svg>