<svg xmlns="http://www.w3.org/2000/svg" width="38" height="38" fill="none"><mask id="a" width="38" height="38" x="0" y="0" maskUnits="userSpaceOnUse" style="mask-type:alpha"><path fill="#D9D9D9" d="M0 0h38v38H0z"/></mask><g mask="url(#a)"><path fill="#33B148" d="M19.792 18.92a9 9 0 0 0 1.761-2.889 9.4 9.4 0 0 0 .614-3.364 9.4 9.4 0 0 0-.614-3.365 9 9 0 0 0-1.761-2.89q2.374.317 3.958 2.098 1.584 1.782 1.583 4.157 0 2.374-1.583 4.156-1.584 1.781-3.958 2.098M28.5 31.668v-4.75q0-1.425-.633-2.712a8.1 8.1 0 0 0-1.663-2.276 17.3 17.3 0 0 1 3.74 1.84q1.723 1.13 1.723 3.148v4.75zm3.167-11.084v-3.166H28.5V14.25h3.167v-3.167h3.166v3.167H38v3.167h-3.167v3.166zm-19-1.583q-2.613 0-4.473-1.86t-1.86-4.473 1.86-4.473 4.473-1.86 4.473 1.86T19 12.667t-1.86 4.473T12.667 19M0 31.667v-4.434q0-1.345.693-2.474a4.6 4.6 0 0 1 1.84-1.721 23.5 23.5 0 0 1 4.988-1.841 21.8 21.8 0 0 1 5.146-.614q2.612 0 5.146.614a23.5 23.5 0 0 1 4.987 1.84q1.148.594 1.84 1.722t.693 2.474v4.434zm12.667-15.834q1.306 0 2.236-.93t.93-2.236-.93-2.237a3.05 3.05 0 0 0-2.236-.93q-1.307 0-2.237.93a3.05 3.05 0 0 0-.93 2.237q0 1.306.93 2.236t2.237.93M3.167 28.5h19v-1.267q0-.435-.218-.791a1.54 1.54 0 0 0-.574-.555 20.6 20.6 0 0 0-4.315-1.603 18.36 18.36 0 0 0-8.787 0q-2.177.535-4.315 1.604a1.54 1.54 0 0 0-.791 1.345z"/></g></svg>