<svg xmlns="http://www.w3.org/2000/svg" width="101" height="100" fill="none"><mask id="a" width="101" height="100" x="0" y="0" maskUnits="userSpaceOnUse" style="mask-type:alpha"><path fill="#D9D9D9" d="M.5 0h100v100H.5z"/></mask><g mask="url(#a)"><path fill="#33B148" d="M4.667 54.167v-8.334h8.437q1.459-13.23 10.73-22.5 9.27-9.27 22.5-10.729v-4.27h8.333v4.27q13.23 1.458 22.5 10.73 9.27 9.27 10.729 22.5h8.437v8.333zm16.979-8.334h57.708Q77.896 35.105 69.72 27.97 61.54 20.833 50.5 20.833T31.281 27.97q-8.177 7.136-9.635 17.864m38.75 8.334H33.833v25h23.125q2.188 0 4.22-.73a11.5 11.5 0 0 0 3.697-2.187l17.292-14.27a5.55 5.55 0 0 0-1.875-1.25 11.3 11.3 0 0 0-2.188-.626 8.2 8.2 0 0 0-3.437.104q-1.667.417-3.125 1.563l-11.25 9.062H42.167V62.5h15.208l4.583-3.75q.522-.312.782-.833.26-.522.26-1.146 0-1.042-.781-1.823-.782-.78-1.823-.781m-34.896 0h-8.333v29.166H25.5zm0 37.5h-8.333q-3.438 0-5.886-2.448t-2.448-5.886V54.167q0-3.438 2.448-5.886t5.886-2.448h43.229q8.854 0 17.083 3.021t13.23 10.209l2.812 4.27-23.23 19.375a19.4 19.4 0 0 1-6.25 3.594 21.4 21.4 0 0 1-7.083 1.198h-24.27a9 9 0 0 1-3.021 3.02q-1.876 1.147-4.167 1.147"/></g></svg>