<svg xmlns="http://www.w3.org/2000/svg" width="24" height="35" fill="none"><path fill="#FE9530" d="M12 25.108q4.243-3.4 6.407-6.546 2.164-3.144 2.164-5.907 0-3.825-2.4-6.29T12 3.9 5.829 6.365t-2.4 6.29q0 2.762 2.164 5.908Q7.757 21.707 12 25.108m0 4.292q-6.043-4.42-9.021-8.585T0 12.655q0-5.313 3.343-8.734Q6.685.501 12 .5t8.657 3.421Q24 7.342 24 12.655q0 3.995-2.979 8.16Q18.044 24.98 12 29.4m0-13.6q1.415 0 2.421-.999 1.008-.999 1.008-2.401T14.42 9.999A3.32 3.32 0 0 0 12 9q-1.415 0-2.421.999-1.008.999-1.008 2.401t1.008 2.401A3.32 3.32 0 0 0 12 15.8M0 34.5v-3.4h24v3.4z"/></svg>