<svg xmlns="http://www.w3.org/2000/svg" width="38" height="38" fill="none"><mask id="a" width="38" height="38" x="0" y="0" maskUnits="userSpaceOnUse" style="mask-type:alpha"><path fill="#D9D9D9" d="M0 0h38v38H0z"/></mask><g mask="url(#a)"><path fill="#33B148" d="M9.5 31.667q-1.98 0-3.365-1.386t-1.386-3.364H1.583V9.5q0-1.306.93-2.237a3.05 3.05 0 0 1 2.236-.93h22.167v6.333h4.75L36.416 19v7.916H33.25q0 1.98-1.385 3.365t-3.365 1.386q-1.978 0-3.364-1.386t-1.386-3.364h-9.5q0 1.978-1.385 3.364t-3.365 1.386m0-3.167q.672 0 1.128-.455.455-.456.455-1.129 0-.672-.455-1.128a1.53 1.53 0 0 0-1.129-.455q-.672 0-1.128.455-.455.456-.455 1.128 0 .674.455 1.129.456.455 1.128.455m-4.75-4.75h1.266a5.5 5.5 0 0 1 1.544-1.148 4.3 4.3 0 0 1 1.94-.436q1.068 0 1.939.436.87.435 1.544 1.148h10.766V9.5h-19zM28.5 28.5q.672 0 1.128-.455.455-.456.455-1.129 0-.672-.455-1.128a1.53 1.53 0 0 0-1.129-.455q-.672 0-1.128.455-.455.456-.455 1.128 0 .674.455 1.129.456.455 1.128.455m-1.584-7.917h6.73l-3.563-4.75h-3.167z"/></g></svg>