<svg xmlns="http://www.w3.org/2000/svg" width="38" height="38" fill="none"><mask id="a" width="38" height="38" x="0" y="0" maskUnits="userSpaceOnUse" style="mask-type:alpha"><path fill="#D9D9D9" d="M0 0h38v38H0z"/></mask><g mask="url(#a)"><path fill="#33B148" d="M12.667 11.083q-.673 0-1.128-.455a1.53 1.53 0 0 1-.456-1.128q0-.673.456-1.128.455-.456 1.128-.455h4.75V4.75q0-.674.455-1.128.455-.455 1.128-.455.674 0 1.128.455.456.455.455 1.128v3.167h4.75q.673 0 1.129.455t.455 1.128-.456 1.128q-.454.456-1.128.455zm1.583 23.75q-1.305 0-2.236-.93a3.05 3.05 0 0 1-.93-2.236v-14.25q0-1.98 1.385-3.365t3.364-1.385h6.334q1.979 0 3.364 1.385 1.386 1.385 1.386 3.365v14.25q0 1.306-.93 2.236t-2.237.93zm0-3.166h9.5v-14.25q0-.673-.455-1.129a1.53 1.53 0 0 0-1.128-.455h-6.334q-.672 0-1.128.455-.455.456-.455 1.129V19h3.167q.672 0 1.128.455.455.456.455 1.128 0 .674-.455 1.128-.456.456-1.128.456H14.25v3.166h3.167q.672 0 1.128.456.455.454.455 1.128 0 .672-.455 1.128-.456.455-1.128.455H14.25z"/></g></svg>