<svg xmlns="http://www.w3.org/2000/svg" width="12" height="12" fill="none"><path fill="#A3FF87" d="M2.625 5.25a2.53 2.53 0 0 1-1.856-.769A2.53 2.53 0 0 1 0 2.625Q0 1.537.769.769A2.53 2.53 0 0 1 2.625 0a2.53 2.53 0 0 1 1.856.769 2.53 2.53 0 0 1 .769 1.856 2.53 2.53 0 0 1-.769 1.856 2.53 2.53 0 0 1-1.856.769m0-1.5q.469 0 .797-.328.328-.329.328-.797t-.328-.797a1.09 1.09 0 0 0-.797-.328q-.468 0-.797.328a1.09 1.09 0 0 0-.328.797q0 .469.328.797t.797.328M9.375 12a2.53 2.53 0 0 1-1.856-.769 2.53 2.53 0 0 1-.769-1.856q0-1.088.769-1.856a2.53 2.53 0 0 1 1.856-.769 2.53 2.53 0 0 1 1.856.769A2.53 2.53 0 0 1 12 9.375a2.53 2.53 0 0 1-.769 1.856A2.53 2.53 0 0 1 9.375 12m0-1.5q.469 0 .797-.328.328-.329.328-.797t-.328-.797a1.09 1.09 0 0 0-.797-.328q-.468 0-.797.328a1.09 1.09 0 0 0-.328.797q0 .469.328.797.329.328.797.328M1.05 12 0 10.95 10.95 0 12 1.05z"/></svg>